<svg width="550" height="108" viewBox="0 0 550 108" fill="none" xmlns="http://www.w3.org/2000/svg">
<path d="M378.172 12.4468V1.37009C378.175 1.18972 378.141 1.01067 378.072 0.843868C378.004 0.677062 377.902 0.525984 377.773 0.39984C377.648 0.270922 377.497 0.169016 377.331 0.100339C377.165 0.0316625 376.987 -0.00234423 376.807 0.000394168H324.186C324.006 -0.00278809 323.827 0.0310068 323.661 0.0997004C323.494 0.168394 323.343 0.270534 323.217 0.39984C323.089 0.525822 322.987 0.67687 322.918 0.843715C322.85 1.01056 322.816 1.18968 322.819 1.37009V78.5607C322.818 78.7411 322.852 78.9199 322.921 79.0868C322.989 79.2536 323.09 79.4052 323.217 79.5327C323.344 79.6603 323.495 79.7612 323.662 79.8297C323.828 79.8981 324.006 79.9328 324.186 79.9316H376.807C376.987 79.9326 377.165 79.8979 377.331 79.8293C377.497 79.7608 377.649 79.6599 377.776 79.5323C377.903 79.4048 378.003 79.2533 378.071 79.0865C378.14 78.9197 378.174 78.741 378.173 78.5607V67.4852C378.174 67.3049 378.14 67.1262 378.071 66.9594C378.003 66.7926 377.903 66.6411 377.776 66.5136C377.649 66.3861 377.497 66.2851 377.331 66.2166C377.165 66.148 376.987 66.1133 376.807 66.1144H339.454C339.378 66.1249 339.299 66.1174 339.226 66.0927C339.153 66.0679 339.086 66.0264 339.031 65.9714C338.976 65.9165 338.935 65.8496 338.91 65.7759C338.885 65.7023 338.878 65.624 338.888 65.547V47.0499C338.878 46.9729 338.885 46.8946 338.91 46.8209C338.935 46.7473 338.976 46.6804 339.031 46.6254C339.086 46.5705 339.153 46.529 339.226 46.5042C339.299 46.4794 339.378 46.472 339.454 46.4825H363.942C364.122 46.4837 364.3 46.4491 364.466 46.3806C364.633 46.3122 364.784 46.2112 364.911 46.0837C365.038 45.9562 365.139 45.8046 365.207 45.6377C365.276 45.4708 365.31 45.292 365.309 45.1117V34.0361C365.31 33.8558 365.276 33.677 365.207 33.5101C365.139 33.3433 365.038 33.1917 364.911 33.0641C364.784 32.9366 364.633 32.8357 364.466 32.7672C364.3 32.6987 364.122 32.6641 363.942 32.6653H339.448C339.371 32.6758 339.293 32.6684 339.219 32.6436C339.146 32.6188 339.079 32.5773 339.024 32.5224C338.969 32.4674 338.928 32.4005 338.903 32.3269C338.879 32.2533 338.871 32.1749 338.882 32.0979V14.3952C338.871 14.3183 338.879 14.24 338.904 14.1665C338.929 14.0929 338.97 14.0261 339.025 13.9713C339.079 13.9164 339.146 13.8749 339.219 13.85C339.293 13.8251 339.371 13.8175 339.448 13.8278H376.8C376.98 13.8289 377.158 13.7941 377.324 13.7257C377.49 13.6572 377.641 13.5564 377.768 13.429C377.896 13.3016 377.996 13.1502 378.064 12.9835C378.133 12.8169 378.167 12.6383 378.166 12.4581L378.172 12.4468ZM296.054 0.9139L278.856 27.519C278.63 27.973 278.403 27.973 278.177 27.519L261.089 0.9139C260.93 0.632331 260.697 0.399261 260.416 0.239425C260.136 0.0795889 259.817 -0.00104929 259.494 0.00606811H246.168C245.988 0.00288586 245.809 0.0366807 245.643 0.105374C245.476 0.174068 245.325 0.276208 245.199 0.405514C245.071 0.531496 244.969 0.682544 244.9 0.849389C244.832 1.01623 244.798 1.19535 244.801 1.37576V78.5607C244.8 78.7411 244.834 78.9199 244.903 79.0868C244.971 79.2536 245.072 79.4052 245.199 79.5327C245.326 79.6603 245.477 79.7612 245.644 79.8297C245.81 79.8981 245.988 79.9328 246.168 79.9316H259.494C259.674 79.9326 259.852 79.8979 260.018 79.8293C260.185 79.7608 260.336 79.6599 260.463 79.5323C260.59 79.4048 260.691 79.2533 260.759 79.0865C260.827 78.9197 260.861 78.741 260.86 78.5607V28.3191C260.86 28.0149 260.935 27.8436 261.087 27.805C261.238 27.7664 261.389 27.8617 261.539 28.0898L273.612 47.0408C273.771 47.3229 274.003 47.5564 274.284 47.7163C274.565 47.8762 274.884 47.9565 275.207 47.9487H281.927C282.25 47.9562 282.569 47.8757 282.849 47.7158C283.13 47.5559 283.362 47.3226 283.521 47.0408L295.595 28.0898C295.746 27.8629 295.896 27.7494 296.047 27.7494C296.199 27.7494 296.274 27.9026 296.274 28.2033V78.5607C296.273 78.7411 296.307 78.9199 296.375 79.0868C296.444 79.2536 296.544 79.4052 296.672 79.5327C296.799 79.6603 296.95 79.7612 297.116 79.8297C297.283 79.8981 297.461 79.9328 297.641 79.9316H310.967C311.147 79.9326 311.325 79.8979 311.491 79.8293C311.658 79.7608 311.809 79.6599 311.936 79.5323C312.063 79.4048 312.163 79.2533 312.232 79.0865C312.3 78.9197 312.334 78.741 312.333 78.5607V1.37009C312.336 1.18972 312.302 1.01067 312.233 0.843868C312.165 0.677062 312.063 0.525984 311.935 0.39984C311.81 0.271758 311.66 0.170337 311.495 0.101687C311.331 0.0330375 311.153 -0.00141888 310.975 0.000394168H297.649C297.326 -0.00640959 297.006 0.0749787 296.725 0.235869C296.445 0.396759 296.213 0.63111 296.054 0.9139Z" fill="white"/>
<path d="M531.537 79.9315C531.718 79.9594 531.903 79.9488 532.08 79.9003C532.257 79.8518 532.421 79.7666 532.563 79.6502C532.705 79.5338 532.821 79.3887 532.903 79.2245C532.986 79.0602 533.032 78.8805 533.041 78.6969L549.873 12.188C549.967 12.0174 550.01 11.8237 549.998 11.6295C549.986 11.4352 549.919 11.2484 549.806 11.0907C549.677 10.9483 549.518 10.8372 549.34 10.7658C549.162 10.6945 548.97 10.6647 548.779 10.6787L540.845 10.5414C540.484 10.5136 540.127 10.6264 539.846 10.8564C539.566 11.0863 539.385 11.4157 539.341 11.7761L527.714 63.7494C527.623 64.024 527.531 64.1614 527.442 64.1614C527.352 64.1614 527.257 64.024 527.168 63.7494L515.404 11.7761C515.359 11.4159 515.178 11.0866 514.898 10.8567C514.618 10.6268 514.261 10.5139 513.9 10.5414H505.956C505.135 10.5414 504.726 10.8637 504.726 11.5015L504.861 12.0507L521.823 78.6969C521.867 79.0572 522.048 79.3866 522.328 79.6166C522.608 79.8465 522.966 79.9593 523.327 79.9315H531.537ZM477.646 72.3886C476.06 72.4424 474.481 72.1516 473.017 71.5361C471.553 70.9207 470.24 69.9952 469.166 68.8231C466.892 66.2137 465.715 62.8221 465.884 59.3612V31.1117C465.724 27.6308 466.899 24.2206 469.166 21.5795C470.23 20.3909 471.54 19.4499 473.005 18.8226C474.47 18.1953 476.054 17.8968 477.646 17.9482C479.248 17.9014 480.841 18.2016 482.316 18.8282C483.792 19.4549 485.115 20.3934 486.195 21.5795C488.502 24.2015 489.704 27.619 489.547 31.1117V59.3612C489.713 62.8341 488.509 66.2329 486.195 68.8231C485.105 69.9926 483.779 70.9155 482.304 71.5304C480.83 72.1452 479.242 72.4378 477.646 72.3886ZM477.646 81.0277C484.211 81.0277 489.456 79.108 493.38 75.2687C497.303 71.4293 499.265 66.3553 499.265 60.0466V30.5636C499.37 27.7582 498.902 24.9609 497.89 22.3433C496.878 19.7258 495.343 17.3431 493.38 15.3416C489.456 11.4114 484.211 9.44446 477.646 9.44067C471.17 9.44067 465.973 11.4076 462.053 15.3416C458.134 19.2755 456.172 24.3495 456.167 30.5636V60.0466C456.167 66.3545 458.105 71.4285 461.981 75.2687C465.856 79.1088 471.078 81.0274 477.646 81.0243V81.0277ZM423.891 71.8325C422.299 71.8847 420.715 71.5867 419.25 70.9593C417.785 70.332 416.475 69.3905 415.411 68.2012C413.159 65.6064 411.985 62.2451 412.129 58.8086V31.1117C411.97 27.6308 413.144 24.2206 415.411 21.5795C416.475 20.3907 417.785 19.4497 419.25 18.8224C420.715 18.1951 422.299 17.8967 423.891 17.9482C425.453 17.9025 427.005 18.2044 428.436 18.8323C429.867 19.4603 431.141 20.3985 432.167 21.5795C434.393 24.2403 435.54 27.6426 435.381 31.1117V58.8131C435.526 62.2378 434.378 65.5914 432.167 68.2057C431.141 69.3873 429.867 70.3259 428.436 70.9539C427.005 71.5819 425.453 71.8835 423.891 71.8371V71.8325ZM435.381 11.9156V16.1666C435.381 16.4412 435.313 16.6012 435.176 16.6466C435.039 16.6942 434.879 16.5785 434.698 16.3062C433.216 14.0827 431.159 12.3049 428.747 11.1633C426.331 10.0213 423.69 9.43583 421.019 9.44975C415.274 9.44975 410.737 11.3467 407.409 15.1407C404.08 18.9347 402.416 24.0314 402.417 30.4309V59.368C402.417 65.6759 404.081 70.7499 407.409 74.5901C410.737 78.4302 415.273 80.348 421.019 80.3435C423.698 80.3569 426.343 79.7466 428.747 78.5607C431.155 77.3805 433.208 75.5827 434.698 73.3497C434.879 73.1682 435.037 73.1228 435.176 73.2124C435.243 73.2572 435.298 73.3188 435.334 73.3911C435.37 73.4633 435.386 73.5437 435.381 73.6244V77.7334C435.381 85.0468 433.922 90.4635 431.004 93.9836C428.086 97.5037 422.98 99.1723 415.684 98.9892C415.498 98.9624 415.309 98.9794 415.131 99.0388C414.953 99.0982 414.791 99.1984 414.658 99.3315C414.526 99.4645 414.426 99.6268 414.366 99.8053C414.307 99.9838 414.29 100.174 414.317 100.36V106.261C414.296 106.452 414.316 106.646 414.376 106.829C414.435 107.012 414.533 107.181 414.662 107.323C414.791 107.466 414.949 107.579 415.125 107.656C415.302 107.733 415.492 107.771 415.684 107.769C426.261 108.223 433.807 105.916 438.322 100.847C442.837 95.7781 445.094 88.3501 445.093 78.563V11.9156C445.119 11.7295 445.102 11.5397 445.042 11.3614C444.983 11.183 444.883 11.021 444.75 10.8879C444.618 10.7549 444.456 10.6546 444.278 10.5948C444.101 10.5351 443.911 10.5176 443.726 10.5437H436.749C436.563 10.5174 436.374 10.5347 436.196 10.5944C436.018 10.654 435.856 10.7543 435.723 10.8874C435.591 11.0205 435.491 11.1826 435.431 11.3611C435.372 11.5396 435.355 11.7294 435.381 11.9156ZM389.484 79.7091C390.713 79.6892 391.909 79.3095 392.926 78.6168C393.943 77.9241 394.735 76.9485 395.205 75.8102C395.676 74.6719 395.805 73.4204 395.575 72.2098C395.345 70.9993 394.768 69.8824 393.913 68.9967C392.72 67.87 391.135 67.2538 389.496 67.2785C387.857 67.3033 386.291 67.9672 385.132 69.1295C383.973 70.2917 383.311 71.8609 383.286 73.5044C383.261 75.1479 383.876 76.7364 385 77.9332C385.582 78.5261 386.282 78.9904 387.055 79.2962C387.827 79.6021 388.655 79.7427 389.484 79.7091Z" fill="white"/>
<path d="M229.649 9.85606C223.629 9.85606 219.297 13.33 216.653 20.278C216.534 20.4273 216.363 20.5255 216.175 20.5526C216.039 20.5526 215.97 20.4153 215.97 20.1407V11.9157C215.996 11.7297 215.98 11.5401 215.921 11.3617C215.862 11.1834 215.762 11.0212 215.63 10.8879C215.498 10.7547 215.337 10.654 215.159 10.5939C214.982 10.5338 214.793 10.5158 214.607 10.5415H207.631C207.445 10.5147 207.256 10.5318 207.078 10.5912C206.9 10.6506 206.738 10.7508 206.605 10.8838C206.472 11.0168 206.372 11.179 206.313 11.3575C206.253 11.5361 206.236 11.726 206.263 11.9123V78.5596C206.236 78.7459 206.253 78.9359 206.313 79.1144C206.372 79.2929 206.472 79.4551 206.605 79.5881C206.738 79.7211 206.9 79.8213 207.078 79.8807C207.256 79.9401 207.445 79.9572 207.631 79.9304H214.607C214.793 79.957 214.982 79.9398 215.16 79.8803C215.338 79.8208 215.5 79.7206 215.632 79.5876C215.765 79.4546 215.865 79.2925 215.924 79.1141C215.984 78.9356 216.001 78.7458 215.974 78.5596V37.4201C215.842 33.2421 216.936 29.1171 219.121 25.557C221.217 22.3138 223.907 20.5999 227.19 20.4153C227.731 20.3082 228.282 20.2622 228.833 20.278C230.245 20.2305 231.65 20.5121 232.936 21.1007C233.938 21.3753 234.485 21.1011 234.577 20.278L236.218 13.1469C236.334 12.8173 236.329 12.4571 236.205 12.1306C236.08 11.8042 235.844 11.5325 235.539 11.3642C233.756 10.3215 231.717 9.79913 229.653 9.85606H229.649ZM173.336 17.9471C174.949 17.8862 176.557 18.1797 178.045 18.8069C179.534 19.4342 180.867 20.3801 181.953 21.5784C184.22 24.2198 185.394 27.6298 185.235 31.1107V40.3025C185.246 40.3769 185.239 40.4529 185.215 40.5243C185.192 40.5956 185.152 40.6605 185.099 40.7138C185.046 40.767 184.981 40.8072 184.91 40.8311C184.839 40.8551 184.763 40.8621 184.689 40.8517H162.251C162.177 40.8624 162.101 40.8555 162.03 40.8316C161.958 40.8078 161.894 40.7676 161.841 40.7143C161.788 40.661 161.748 40.596 161.724 40.5245C161.7 40.453 161.694 40.377 161.704 40.3025V31.1107C161.544 27.6413 162.692 24.2386 164.919 21.5784C165.966 20.387 167.264 19.4434 168.718 18.8154C170.173 18.1875 171.748 17.8909 173.331 17.9471H173.336ZM194.806 47.5651V30.4253C194.806 24.2104 192.868 19.1594 188.992 15.2724C185.117 11.3854 179.896 9.44262 173.331 9.44413C166.855 9.44413 161.68 11.3869 157.806 15.2724C153.933 19.1579 151.995 24.2089 151.993 30.4253V60.0433C151.993 66.3512 153.931 71.4252 157.806 75.2653C161.682 79.1054 166.857 81.0251 173.331 81.0244C179.258 81.0244 184.068 79.4474 187.762 76.2934C191.518 73.0197 193.89 68.4346 194.396 63.4703C194.449 63.2793 194.451 63.0777 194.403 62.8854C194.355 62.693 194.258 62.5164 194.122 62.373C193.999 62.2426 193.85 62.139 193.685 62.0683C193.521 61.9977 193.343 61.9615 193.164 61.9622L186.325 61.6876C185.971 61.6866 185.627 61.8092 185.352 62.0344C185.078 62.2596 184.89 62.5735 184.821 62.9222C184.267 65.6097 182.849 68.0411 180.786 69.8444C178.719 71.6332 176.061 72.5866 173.331 72.5191C171.748 72.5758 170.173 72.2794 168.718 71.6515C167.263 71.0235 165.966 70.0796 164.919 68.8878C162.706 66.2739 161.558 62.9193 161.704 59.494V49.4874C161.694 49.413 161.701 49.337 161.725 49.2656C161.748 49.1943 161.788 49.1294 161.841 49.0761C161.894 49.0229 161.959 48.9827 162.03 48.9588C162.101 48.9348 162.177 48.9278 162.251 48.9382H193.44C193.626 48.9647 193.816 48.9476 193.993 48.8881C194.171 48.8286 194.333 48.7283 194.466 48.5954C194.598 48.4624 194.698 48.3002 194.758 48.1218C194.817 47.9434 194.834 47.7536 194.808 47.5674L194.806 47.5651ZM119.064 79.9304H127.27C127.451 79.9585 127.636 79.948 127.813 79.8997C127.99 79.8514 128.155 79.7663 128.297 79.65C128.439 79.5336 128.555 79.3887 128.637 79.2245C128.72 79.0603 128.767 78.8805 128.775 78.6969L145.6 12.1869C145.693 12.0161 145.736 11.8224 145.724 11.6282C145.711 11.434 145.645 11.2473 145.531 11.0896C145.402 10.9477 145.243 10.8369 145.065 10.7658C144.888 10.6946 144.696 10.6648 144.505 10.6788L136.572 10.5415C136.211 10.5134 135.853 10.6261 135.573 10.8561C135.292 11.0861 135.111 11.4157 135.068 11.7761L123.441 63.7495C123.349 64.023 123.256 64.1603 123.167 64.1603C123.077 64.1603 122.984 64.023 122.893 63.7495L111.13 11.7761C111.086 11.4159 110.905 11.0867 110.625 10.8568C110.345 10.6268 109.987 10.5139 109.626 10.5415H101.693C100.872 10.5415 100.461 10.8615 100.461 11.5015L100.598 12.0496L117.56 78.6969C117.604 79.0572 117.785 79.3865 118.065 79.6162C118.345 79.846 118.703 79.9586 119.064 79.9304ZM73.5515 72.3886C71.9652 72.4425 70.386 72.1517 68.9222 71.5363C67.4585 70.9209 66.1449 69.9953 65.0714 68.8231C62.7973 66.2137 61.6208 62.8222 61.7889 59.3612V31.1118C61.6298 27.6309 62.8041 24.2207 65.0714 21.5796C66.135 20.3906 67.4452 19.4494 68.9102 18.8221C70.3752 18.1948 71.9594 17.8965 73.5515 17.9482C75.1532 17.9012 76.7462 18.2013 78.2216 18.828C79.6971 19.4547 81.0202 20.3932 82.1007 21.5796C84.4077 24.2016 85.6093 27.619 85.4522 31.1118V59.3612C85.618 62.8341 84.4141 66.2329 82.1007 68.8231C81.0104 69.9926 79.684 70.9156 78.2097 71.5304C76.7355 72.1452 75.1475 72.4378 73.5515 72.3886ZM73.5515 81.0278C80.1165 81.0278 85.3609 79.1081 89.2848 75.2687C93.2087 71.4294 95.1707 66.3553 95.1707 60.0467V30.5626C95.2755 27.7573 94.8075 24.9602 93.7954 22.3428C92.7832 19.7254 91.2483 17.343 89.2848 15.3416C85.3609 11.4115 80.1165 9.44451 73.5515 9.44073C67.0763 9.44073 61.8787 11.4077 57.9586 15.3416C54.0385 19.2756 52.0765 24.3492 52.0727 30.5626V60.0467C52.0727 66.3546 54.0102 71.4286 57.885 75.2687C61.7598 79.1088 66.982 81.0274 73.5515 81.0244V81.0278ZM21.3384 81.0244C27.8121 81.0244 33.0328 79.2189 37.0004 75.608C38.9241 73.9059 40.4534 71.8026 41.481 69.4457C42.5087 67.0887 43.01 64.5349 42.9497 61.9633V60.454C42.9759 60.2679 42.9586 60.0782 42.8992 59.8999C42.8397 59.7216 42.7398 59.5595 42.6072 59.4266C42.4746 59.2937 42.313 59.1934 42.1351 59.1339C41.9573 59.0743 41.768 59.0569 41.5823 59.0832L34.6065 58.9459C34.4206 58.9194 34.2311 58.9366 34.053 58.9961C33.8749 59.0557 33.7131 59.156 33.5804 59.2891C33.4476 59.4222 33.3476 59.5844 33.2881 59.763C33.2287 59.9416 33.2116 60.1315 33.238 60.3179V61.279C33.2461 62.7531 32.953 64.2133 32.3768 65.5695C31.8006 66.9257 30.9535 68.1492 29.8876 69.1647C28.7665 70.2797 27.4298 71.153 25.9595 71.7309C24.4893 72.3087 22.9167 72.5789 21.3384 72.5248C19.7556 72.5815 18.1799 72.2851 16.7252 71.6571C15.2704 71.0292 13.9729 70.0852 12.9262 68.8935C10.6981 66.2339 9.5505 62.8307 9.71164 59.3612V31.1118C9.55161 27.6425 10.6991 24.2397 12.9262 21.5796C13.9732 20.3882 15.2708 19.4445 16.7255 18.8166C18.1801 18.1886 19.7557 17.8921 21.3384 17.9482C22.9166 17.8945 24.489 18.1647 25.9591 18.7423C27.4293 19.3199 28.7662 20.1928 29.8876 21.3072C30.9533 22.3228 31.8003 23.5464 32.3765 24.9025C32.9527 26.2587 33.2459 27.7188 33.238 29.1929V30.1529C33.2115 30.3392 33.2287 30.5291 33.2881 30.7077C33.3475 30.8862 33.4475 31.0484 33.5803 31.1814C33.7131 31.3144 33.875 31.4146 34.0531 31.474C34.2312 31.5334 34.4207 31.5505 34.6065 31.5237L41.5823 31.2502C41.7681 31.2766 41.9575 31.2592 42.1354 31.1996C42.3134 31.1399 42.4751 31.0396 42.6077 30.9065C42.7403 30.7735 42.8402 30.6113 42.8996 30.4328C42.959 30.2544 42.9761 30.0645 42.9497 29.8783V28.5063C42.9802 25.1397 42.0553 21.8337 40.2829 18.9741C38.4229 16.0212 35.7994 13.629 32.6913 12.0519C29.1784 10.26 25.2792 9.36353 21.3384 9.44186C14.9546 9.44186 9.80257 11.3846 5.88245 15.2701C1.96232 19.1557 0.00150919 24.2074 0 30.4253V60.0433C0 66.3512 1.9378 71.4252 5.8134 75.2653C9.689 79.1054 14.864 81.0251 21.3384 81.0244Z" fill="white"/>
</svg>
